# xmcd
#
# Track frame offsets: 
#        150
#        13496
#        27058
#        41711
#        57049
#        70211
#        83819
#        97258
#        112109
#        124456
#        137549
#        153652
#        168940
#        185018
#        201258
#        215935
#        231323
#        244460
#        260028
#        273560
#        288591
#
# Disc length: 4005 seconds
#
# Revision: 0
# Processed by: cddbd v1.5.2PL0 Copyright (c) Steve Scherf et al.
# Submitted via: ExactAudioCopy v1.1
#
DISCID=560fa315
DTITLE=Various Artist - MNM Big Hits 2019 Vol. 2 - CD 2
DYEAR=2019
DGENRE=Top 40
TTITLE0=Ariana Grande - 7 Rings
TTITLE1=Jonas Brothers - Sucker
TTITLE2=Billie Eilish - Bury A Friend
TTITLE3=Suzan and Freek - Als Het Avond Is
TTITLE4=P!nk - Walk Me Home
TTITLE5=Zedd and Katy Perry - 365
TTITLE6=Dua Lipa - Swan Song
TTITLE7=Gesaffelstein and The Weeknd - Lost In The Fire
TTITLE8=Netsky Feat. Bazzi and Lil Wayne - I Don't Even Know You Anymore
TTITLE9=Gers Pardoel Feat. Jayh - Zomer
TTITLE10=Marnik and Smack - Gam Gam
TTITLE11=Sheppard - On My Way
TTITLE12=George Ezra - Pretty Shining People
TTITLE13=Kris Kross Amsterdam, Maan and Tabitha Feat. Bizzey - Hij Is Va
TTITLE13=n Mij
TTITLE14=Khalid - Talk
TTITLE15=Henri PFR Feat. Susan H - Easy
TTITLE16=LSD (Labrinth, Sia, Diplo) - No New Friends
TTITLE17=Martin Garrix Feat. Bonn - No Sleep
TTITLE18=Eliot - Wake Up
TTITLE19=Cardi B and Bruno Mars - Please Me
TTITLE20=De Grote Peter Van De Veire Ochtendshow - Dans DJ Dans!
EXTD=
EXTT0=
EXTT1=
EXTT2=
EXTT3=
EXTT4=
EXTT5=
EXTT6=
EXTT7=
EXTT8=
EXTT9=
EXTT10=
EXTT11=
EXTT12=
EXTT13=
EXTT14=
EXTT15=
EXTT16=
EXTT17=
EXTT18=
EXTT19=
EXTT20=
PLAYORDER=
